<?xml version="1.0" encoding="utf-8"?>
<!-- Generator: Adobe Illustrator 24.3.0, SVG Export Plug-In . SVG Version: 6.00 Build 0)  -->
<svg version="1.1" id="Capa_1" xmlns="http://www.w3.org/2000/svg" xmlns:xlink="http://www.w3.org/1999/xlink" x="0px" y="0px"
	 viewBox="0 0 293.5 375" style="enable-background:new 0 0 293.5 375;" xml:space="preserve">
<style type="text/css">
	.st0{clip-path:url(#SVGID_2_);}
	.st1{fill:#28282A;}
	.st2{clip-path:url(#SVGID_4_);}
	.st3{fill:#FFFFFF;}
	.st4{clip-path:url(#SVGID_6_);}
	.st5{font-family:'Roboto-Bold';}
	.st6{font-size:54px;}
</style>
<g>
	<g>
		<defs>
			<rect id="SVGID_1_" width="293.5" height="375"/>
		</defs>
		<clipPath id="SVGID_2_">
			<use xlink:href="#SVGID_1_"  style="overflow:visible;"/>
		</clipPath>
		<g class="st0">
			<path class="st1" d="M-42.9,0h375v375h-375V0z"/>
		</g>
	</g>
	<g>
		<g>
			<defs>
				<rect id="SVGID_3_" x="36.4" y="164.8" width="224.1" height="8.6"/>
			</defs>
			<clipPath id="SVGID_4_">
				<use xlink:href="#SVGID_3_"  style="overflow:visible;"/>
			</clipPath>
			<g class="st2">
				<path class="st3" d="M36.4,56.7h224.1v224.1H36.4V56.7z"/>
			</g>
		</g>
		<g>
			<defs>
				<rect id="SVGID_5_" x="63.8" y="51.6" width="168.9" height="85.9"/>
			</defs>
			<clipPath id="SVGID_6_">
				<use xlink:href="#SVGID_5_"  style="overflow:visible;"/>
			</clipPath>
			<g class="st4">
				<path class="st3" d="M230.4,99.4c-2.5-1.9-5-3.7-7.6-5.4l6.2-3.6c2.5-1.5,3.4-4.8,1.9-7.3s-4.8-3.4-7.3-1.9l-11,6.4
					c-2.8-1.6-5.6-3.1-8.4-4.5l7-8.4c1.9-2.3,1.6-5.6-0.7-7.5c-2.3-1.9-5.6-1.6-7.5,0.6l-9,10.7c-4.7-1.9-9.5-3.4-14.3-4.7l3.5-9.5
					c1-2.8-0.4-5.8-3.2-6.8c-2.8-1-5.8,0.4-6.8,3.2l-3.9,10.9c-5-0.8-9.9-1.4-14.9-1.6V56.9c0-2.9-2.4-5.3-5.3-5.3
					c-2.9,0-5.3,2.4-5.3,5.3v12.9c-5.2,0.2-10.2,0.8-14.9,1.6l-4-11c-1-2.8-4.1-4.2-6.8-3.2c-2.8,1-4.2,4.1-3.2,6.8l3.5,9.6
					c-5.1,1.3-9.9,2.9-14.4,4.6L95,67.7c-1.9-2.3-5.3-2.6-7.5-0.6c-2.3,1.9-2.6,5.3-0.6,7.5l6.9,8.3c-3.6,1.7-6.9,3.5-9.8,5.2l-12-7
					c-2.5-1.5-5.8-0.6-7.3,1.9c-1.5,2.5-0.6,5.8,1.9,7.3l7.3,4.3c-3.9,2.8-6.2,4.7-6.5,5c-1.2,1-1.9,2.6-1.8,4.2s0.8,3.1,2.1,4.1
					c25.6,19.6,52.9,29.6,81,29.6c47.8,0,80.7-28.6,82.1-29.9c1.2-1,1.9-2.6,1.8-4.2C232.4,101.8,231.7,100.3,230.4,99.4z
					 M149,125.3c-11.7,0-21.2-9.5-21.2-21.3c0-11.7,9.5-21.3,21.2-21.3s21.2,9.5,21.2,21.3C170.2,115.8,160.7,125.3,149,125.3z
					 M124.9,83.3c-4.8,5.6-7.7,12.9-7.7,20.8c0,7.5,2.6,14.4,6.9,19.9c-15.1-3.6-30-10.3-44.4-20.4C87.6,97.9,103.7,88.1,124.9,83.3
					z M174.1,123.7c4.2-5.4,6.8-12.3,6.8-19.7c0-8-3-15.3-7.9-20.9c15.4,3.5,30.6,10.3,45.2,20.6
					C210.5,109.2,194.8,118.8,174.1,123.7z"/>
			</g>
		</g>
		<text transform="matrix(1 0 0 1 75.9568 250)"><tspan x="0" y="0" class="st3 st5 st6">Roots</tspan><tspan x="-56.4" y="64.8" class="st3 st5 st6">SESSIONS</tspan></text>
	</g>
</g>
</svg>
